<svg width="240" height="192" viewBox="0 0 240 192" fill="none" xmlns="http://www.w3.org/2000/svg">
<path d="M112.993 160.242C112.302 160.242 111.697 160.003 111.179 159.525C110.704 159.047 110.467 158.439 110.467 157.701V111.9C110.467 111.205 110.704 110.619 111.179 110.141C111.697 109.62 112.302 109.359 112.993 109.359C113.683 109.359 114.266 109.62 114.741 110.141C115.259 110.619 115.518 111.205 115.518 111.9V155.421H140.84C141.531 155.421 142.114 155.659 142.589 156.137C143.107 156.572 143.366 157.136 143.366 157.831C143.366 158.526 143.107 159.112 142.589 159.59C142.114 160.025 141.531 160.242 140.84 160.242H112.993Z" fill="white"/>
<path d="M157.343 160.574C154.019 160.574 151.039 159.792 148.406 158.229C145.772 156.622 143.678 154.45 142.124 151.714C140.613 148.977 139.857 145.894 139.857 142.462C139.857 138.987 140.634 135.882 142.189 133.145C143.786 130.409 145.945 128.259 148.665 126.696C151.385 125.089 154.45 124.285 157.861 124.285C161.272 124.285 164.316 125.089 166.993 126.696C169.713 128.259 171.849 130.409 173.404 133.145C175.002 135.882 175.822 138.987 175.865 142.462V157.772C175.865 158.511 175.628 159.119 175.153 159.597C174.678 160.031 174.073 160.248 173.339 160.248C172.605 160.248 172.001 160.031 171.526 159.597C171.051 159.119 170.814 158.511 170.814 157.772V153.798C169.346 155.883 167.446 157.533 165.114 158.75C162.783 159.966 160.193 160.574 157.343 160.574ZM157.861 156.013C160.365 156.013 162.589 155.427 164.531 154.254C166.518 153.082 168.072 151.475 169.195 149.433C170.36 147.348 170.943 145.025 170.943 142.462C170.943 139.856 170.36 137.532 169.195 135.491C168.072 133.45 166.518 131.843 164.531 130.67C162.589 129.454 160.365 128.845 157.861 128.845C155.4 128.845 153.177 129.454 151.19 130.67C149.204 131.843 147.629 133.45 146.463 135.491C145.297 137.532 144.714 139.856 144.714 142.462C144.714 145.025 145.297 147.348 146.463 149.433C147.629 151.475 149.204 153.082 151.19 154.254C153.177 155.427 155.4 156.013 157.861 156.013Z" fill="white"/>
<path d="M194.435 160.568C191.068 160.568 188.023 159.786 185.303 158.222C182.627 156.658 180.489 154.53 178.892 151.837C177.337 149.101 176.539 146.039 176.496 142.651V111.9C176.496 111.118 176.712 110.51 177.144 110.076C177.618 109.598 178.244 109.359 179.021 109.359C179.755 109.359 180.338 109.598 180.77 110.076C181.245 110.51 181.483 111.118 181.483 111.9V131.055C182.908 129.013 184.785 127.384 187.117 126.168C189.492 124.909 192.125 124.279 195.018 124.279C198.342 124.279 201.321 125.082 203.955 126.689C206.589 128.253 208.661 130.403 210.172 133.139C211.727 135.876 212.504 138.959 212.504 142.39C212.504 145.865 211.705 148.971 210.107 151.707C208.553 154.443 206.416 156.615 203.696 158.222C200.976 159.786 197.889 160.568 194.435 160.568ZM194.435 156.007C196.939 156.007 199.184 155.421 201.17 154.248C203.156 153.032 204.711 151.403 205.833 149.362C206.999 147.32 207.581 144.997 207.581 142.39C207.581 139.828 206.999 137.526 205.833 135.484C204.711 133.4 203.156 131.771 201.17 130.598C199.184 129.426 196.939 128.839 194.435 128.839C191.974 128.839 189.751 129.426 187.764 130.598C185.778 131.771 184.224 133.4 183.102 135.484C181.979 137.526 181.418 139.828 181.418 142.39C181.418 144.997 181.979 147.32 183.102 149.362C184.224 151.403 185.778 153.032 187.764 154.248C189.751 155.421 191.974 156.007 194.435 156.007Z" fill="white"/>
<path d="M225.588 160.574C223.041 160.574 220.515 160.14 218.011 159.271C215.507 158.402 213.477 157.099 211.923 155.362C211.448 154.84 211.254 154.254 211.34 153.603C211.427 152.951 211.751 152.387 212.312 151.909C212.916 151.475 213.542 151.301 214.19 151.387C214.838 151.475 215.377 151.757 215.809 152.235C216.846 153.451 218.205 154.385 219.889 155.036C221.616 155.687 223.516 156.013 225.588 156.013C228.783 156.013 231.093 155.471 232.518 154.385C233.943 153.255 234.677 151.909 234.72 150.345C234.72 148.782 233.986 147.501 232.518 146.501C231.05 145.459 228.632 144.655 225.264 144.091C220.903 143.396 217.709 142.18 215.68 140.442C213.65 138.705 212.636 136.642 212.636 134.253C212.636 132.038 213.218 130.192 214.384 128.716C215.55 127.239 217.104 126.131 219.047 125.393C220.99 124.654 223.127 124.285 225.459 124.285C228.351 124.285 230.834 124.784 232.906 125.784C235.022 126.783 236.727 128.129 238.023 129.823C238.455 130.387 238.628 130.974 238.54 131.582C238.455 132.19 238.109 132.69 237.505 133.08C236.986 133.384 236.382 133.493 235.691 133.406C235.043 133.276 234.482 132.95 234.007 132.429C231.892 129.997 228.999 128.78 225.329 128.78C222.955 128.78 221.055 129.28 219.63 130.279C218.205 131.235 217.493 132.451 217.493 133.927C217.493 135.404 218.119 136.62 219.371 137.576C220.666 138.532 223.084 139.313 226.624 139.922C229.863 140.442 232.41 141.224 234.266 142.266C236.166 143.266 237.505 144.46 238.282 145.85C239.102 147.196 239.513 148.673 239.513 150.28C239.513 152.322 238.907 154.124 237.699 155.687C236.533 157.208 234.892 158.402 232.777 159.271C230.705 160.14 228.308 160.574 225.588 160.574Z" fill="white"/>
<path d="M174.991 66.7354H180.659V72.3287C182.11 69.4969 184.252 68.2551 186.395 67.0812C190.321 65.203 194.159 65.8381 195.587 66.3902C195.633 67.7254 195.698 70.6993 195.587 71.9144C190.058 70.1193 186.464 71.8452 185.635 72.3287C182.372 74.5934 181.175 79.702 180.875 81.7507L180.659 102.021H174.991V66.7354Z" fill="white"/>
<path fill-rule="evenodd" clip-rule="evenodd" d="M165.454 85.7211C165.753 81.8997 165.191 73.3471 160.547 69.7005C156.399 65.2131 146.378 64.5215 140.365 68.5267C137.577 70.1149 132.126 75.6809 132.624 85.2375C132.625 85.2733 132.626 85.3103 132.626 85.3479C132.696 88.8684 132.925 100.388 148.175 103.053C151.009 103.191 156.814 103.191 164.002 100.498C164.168 98.8957 164.072 96.0554 164.002 94.8354C162.182 95.9632 157.354 98.1914 152.599 98.081C148.728 98.0119 143.337 97.805 140.711 93.0403C139.549 90.6653 138.937 87.171 138.775 85.7211H165.454ZM138.867 81.3665H159.642C159.761 77.9789 158.089 71.1256 150.457 70.8107C149.353 70.7713 143.243 70.5747 140.128 76.4435C139.655 77.5858 138.867 79.6721 138.867 81.3665Z" fill="white"/>
<path d="M200.589 66.7849H206.316V72.0512C210.676 66.524 213.801 66.3942 215.233 66.069C221.35 64.769 225.645 67.8896 227.597 69.9055C229.159 71.518 230.157 76.4725 230.461 78.7481V102.09H224.409C224.387 95.5882 224.357 82.038 224.409 79.8534C223.953 73.8718 222.326 73.0261 220.764 72.0512C216.469 69.7757 212.759 71.5307 211.848 72.0512C208.152 73.3513 206.62 77.7944 206.316 79.8534V102.09H200.589V66.7849Z" fill="white"/>
<path d="M109.661 56.6914H115.391L115.545 66.5574H127.517V71.2086H115.545C115.528 77.2576 115.504 90.1113 115.545 93.1373C115.586 96.1633 118.155 97.1928 119.433 97.3287H127.517V102.133C116.517 102.44 114.829 101.367 113.601 100.907C110.654 99.4756 109.746 95.1308 109.661 93.1373L109.405 71.2086H105.312V66.5574H109.661V56.6914Z" fill="white"/>
<path d="M77.4676 52.3264C77.4676 52.3264 74.9548 49.7287 74.0928 52.3264C74.1644 53.1927 75.2418 58.0271 78.3296 64.3048C80.4117 67.6244 93.9115 87.9734 97.8609 94.1794C99.5122 96.9215 102.6 101.828 103.893 102.838C104.826 103.127 106.19 102.766 105.688 99.0861C105.185 95.4061 102.385 90.5711 98.0046 83.7159C94.0984 77.6257 77.4676 52.3264 77.4676 52.3264Z" fill="white"/>
<path fill-rule="evenodd" clip-rule="evenodd" d="M44.0786 103.563C32.5892 110.852 18.3717 110.852 18.3717 110.852C20.1929 122.749 22.8391 126.593 25.2966 130.162C25.552 130.532 25.805 130.9 26.055 131.273C31.9874 138.938 38.3361 138.506 40.5934 138.353C40.631 138.35 40.668 138.347 40.7032 138.345C48.27 138.345 53.5667 134.338 55.7992 132.648C55.9818 132.51 56.1444 132.387 56.2851 132.284C63.5377 126.872 71.6523 112.656 74.0934 108.11C75.9031 104.74 80.4348 94.1154 83.624 86.6384C84.7378 84.028 85.6872 81.801 86.3005 80.4002C88.6701 74.9882 98.7236 47.4953 99.6566 44.3923C102.027 39.1969 111.792 8.67312 111.792 8.67312L102.385 13.5797L100.949 9.82758L118.183 0.0859375L126.369 16.8271L122.779 18.7757L118.183 10.1885C118.183 10.1885 117.824 10.4051 116.675 13.291C115.526 16.1774 110.356 31.4038 108.489 37.3205C106.622 43.2378 103.678 51.1753 99.8004 61.5666C97.8457 66.8045 95.1977 74.4447 92.6012 81.9362C90.0472 89.3053 87.5429 96.5305 85.7982 101.182C81.2028 113.161 73.5911 125.356 71.4369 128.603C62.3456 142.443 54.6004 146.75 50.8665 148.826C50.6487 148.948 50.4437 149.061 50.2538 149.169C30.0637 158.486 18.0174 149.784 14.932 147.556C14.7912 147.454 14.6693 147.365 14.5656 147.293C-0.480065 132.108 0.147819 116.863 0.595529 105.976C0.639208 104.913 0.681672 103.89 0.707151 102.914C1.35324 88.5542 6.8107 75.6374 8.24664 72.4628C15.9342 57.6786 26.7405 53.3422 30.4496 51.8541C30.7596 51.7298 31.0198 51.6254 31.2249 51.5362C49.6865 46.8292 55.9223 52.88 58.9981 55.8647C59.1285 55.9909 59.2535 56.1122 59.373 56.2263C68.5644 65.9679 62.0301 82.421 60.5942 85.8844C56.1419 95.626 47.1659 101.543 44.0786 103.563ZM42.4916 90.9372C34.3776 102.266 18.436 103.782 18.436 103.782C19.585 85.7418 24.3242 75.567 24.3242 75.567C29.2071 62.8667 35.3107 60.1968 37.2495 59.4027C46.7722 57.2843 47.7258 64.3591 48.1657 67.6259C48.1905 67.8079 48.2136 67.9784 48.236 68.1343C49.4354 82.4598 44.2079 88.8363 42.7573 90.6059C42.6439 90.7437 42.5541 90.8535 42.4916 90.9372Z" fill="white"/>
<path d="M7.49731 187.257V173.336H16.2471V174.87H9.14923V179.234H15.7751V180.768H9.14923V185.723H16.6014V187.257H7.49731ZM18.8775 187.257V180.237C18.8775 179.392 18.7987 178.664 18.7987 178.055H20.254C20.254 178.546 20.2935 179.057 20.2935 179.569H20.3323C20.7454 178.664 21.8859 177.819 23.4001 177.819C25.3857 177.819 26.0148 178.94 26.3096 179.569C26.9782 178.488 27.8238 177.819 29.2198 177.819C31.8545 177.819 32.7195 179.293 32.7195 181.673V187.257H31.1859V181.751C31.1859 180.473 30.734 179.234 28.9443 179.234C27.6467 179.234 26.5656 180.296 26.5656 181.948V187.257H25.032V182.046C25.032 180.021 24.5206 179.234 23.2624 179.234C21.2762 179.234 20.4111 180.67 20.4111 182.774V187.257H18.8775ZM35.5423 191.74V178.055H37.0765V179.392H37.1154C37.961 178.409 39.0815 177.819 40.4186 177.819C43.3093 177.819 45.256 179.864 45.256 182.656C45.256 185.408 43.2304 187.493 40.6546 187.493C39.0033 187.493 37.6856 186.667 37.1154 185.625H37.0765V191.74H35.5423ZM37.0765 182.656C37.0765 184.583 38.3541 186.077 40.3403 186.077C42.3259 186.077 43.6041 184.583 43.6041 182.656C43.6041 180.729 42.3259 179.234 40.3403 179.234C38.3541 179.234 37.0765 180.729 37.0765 182.656ZM47.1106 182.656C47.1106 179.785 49.1944 177.819 52.0263 177.819C54.8575 177.819 56.9414 179.785 56.9414 182.656C56.9414 185.527 54.8575 187.493 52.0263 187.493C49.1944 187.493 47.1106 185.527 47.1106 182.656ZM48.7619 182.656C48.7619 184.583 50.0401 186.077 52.0263 186.077C54.0119 186.077 55.2901 184.583 55.2901 182.656C55.2901 180.729 54.0119 179.234 52.0263 179.234C50.0401 179.234 48.7619 180.729 48.7619 182.656ZM72.1557 178.055L69.1867 187.257H67.6725L65.0572 180.178H65.0178L62.6979 187.257H61.1249L58.1359 178.055H59.8273L61.9311 185.134H61.9706L64.3492 178.055H65.9617L68.3805 185.134H68.4193L70.5038 178.055H72.1557ZM80.9485 184.681L82.109 185.585C81.0274 186.981 79.7297 187.493 78.019 187.493C75.1289 187.493 73.3593 185.33 73.3593 182.656C73.3593 179.805 75.3643 177.819 78.0778 177.819C80.6737 177.819 82.4433 179.589 82.4433 182.636V183.128H75.0106C75.1289 184.72 76.3476 186.077 78.019 186.077C79.3366 186.077 80.2211 185.605 80.9485 184.681ZM75.0106 181.83H80.7914C80.7325 180.277 79.7097 179.234 78.019 179.234C76.3282 179.234 75.2071 180.277 75.0106 181.83ZM84.8153 187.257V180.237C84.8153 179.392 84.7371 178.664 84.7371 178.055H86.1918C86.1918 178.546 86.2313 179.057 86.2313 179.569H86.2707C86.6832 178.664 87.8237 177.819 89.3379 177.819C89.5345 177.819 89.751 177.839 89.967 177.917L89.8687 179.47C89.6133 179.392 89.3185 179.353 89.0431 179.353C87.1752 179.353 86.3489 180.67 86.3489 182.774V187.257H84.8153ZM91.8658 187.257V178.055H93.3995V187.257H91.8658ZM91.5116 174.456C91.5116 173.847 92.0035 173.336 92.6326 173.336C93.2617 173.336 93.7532 173.847 93.7532 174.456C93.7532 175.106 93.2812 175.578 92.6326 175.578C91.9835 175.578 91.5116 175.106 91.5116 174.456ZM96.4515 187.257V180.237C96.4515 179.392 96.3733 178.664 96.3733 178.055H97.828C97.828 178.546 97.8675 179.057 97.8675 179.569H97.9069C98.3194 178.664 99.4599 177.819 100.974 177.819C103.392 177.819 104.474 179.353 104.474 181.574V187.257H102.94V181.731C102.94 180.198 102.272 179.234 100.836 179.234C98.8503 179.234 97.9852 180.67 97.9852 182.774V187.257H96.4515ZM116.56 178.055V186.844C116.56 190.167 114.771 191.976 111.546 191.976C109.757 191.976 108.321 191.504 107.024 190.226L108.125 188.968C109.088 190.01 110.13 190.56 111.546 190.56C114.299 190.56 115.026 188.79 115.026 186.844V185.664H114.987C114.259 186.844 112.962 187.375 111.742 187.375C108.852 187.375 106.847 185.369 106.847 182.656C106.847 179.648 108.813 177.819 111.742 177.819C112.981 177.819 114.377 178.409 114.987 179.628H115.026V178.055H116.56ZM108.498 182.656C108.498 184.524 109.953 185.959 111.742 185.959C113.846 185.959 115.026 184.386 115.026 182.617C115.026 180.63 113.689 179.234 111.742 179.234C109.816 179.234 108.498 180.729 108.498 182.656ZM125.145 187.257V173.336H129.392C131.693 173.336 134.013 174.201 134.013 176.757C134.013 178.369 133.069 179.451 131.575 179.903V179.942C133.364 180.1 134.721 181.535 134.721 183.364C134.721 186.431 131.87 187.257 129.294 187.257H125.145ZM126.797 174.87V179.234H129.078C130.631 179.234 132.244 178.9 132.244 176.973C132.244 175.263 130.749 174.87 129.255 174.87H126.797ZM126.797 180.768V185.723H129.589C131.201 185.723 132.951 185.074 132.951 183.304C132.951 181.358 131.3 180.768 129.628 180.768H126.797ZM145.277 178.055V185.074C145.277 185.92 145.356 186.647 145.356 187.257H143.901C143.901 186.765 143.862 186.254 143.862 185.743H143.822C143.409 186.647 142.269 187.493 140.755 187.493C138.336 187.493 137.255 185.959 137.255 183.737V178.055H138.789V183.58C138.789 185.114 139.457 186.077 140.893 186.077C142.878 186.077 143.743 184.642 143.743 182.538V178.055H145.277ZM147.158 185.782L148.377 184.838C148.987 185.585 149.655 186.077 150.737 186.077C151.7 186.077 152.762 185.664 152.762 184.662C152.762 183.678 151.779 183.423 150.796 183.206C149.046 182.813 147.551 182.439 147.551 180.532C147.551 178.743 149.282 177.819 150.992 177.819C152.29 177.819 153.49 178.311 154.119 179.49L152.841 180.336C152.447 179.687 151.798 179.234 150.894 179.234C150.049 179.234 149.085 179.648 149.085 180.513C149.085 181.279 150.186 181.614 151.405 181.85C153.037 182.164 154.414 182.754 154.414 184.602C154.414 186.687 152.565 187.493 150.737 187.493C149.184 187.493 148.063 187.08 147.158 185.782ZM156.69 187.257V178.055H158.224V187.257H156.69ZM156.336 174.456C156.336 173.847 156.828 173.336 157.457 173.336C158.086 173.336 158.578 173.847 158.578 174.456C158.578 175.106 158.106 175.578 157.457 175.578C156.808 175.578 156.336 175.106 156.336 174.456ZM161.276 187.257V180.237C161.276 179.392 161.197 178.664 161.197 178.055H162.653C162.653 178.546 162.691 179.057 162.691 179.569H162.731C163.144 178.664 164.285 177.819 165.798 177.819C168.217 177.819 169.298 179.353 169.298 181.574V187.257H167.765V181.731C167.765 180.198 167.096 179.234 165.661 179.234C163.675 179.234 162.81 180.67 162.81 182.774V187.257H161.276ZM179.26 184.681L180.421 185.585C179.339 186.981 178.042 187.493 176.331 187.493C173.441 187.493 171.671 185.33 171.671 182.656C171.671 179.805 173.676 177.819 176.39 177.819C178.985 177.819 180.755 179.589 180.755 182.636V183.128H173.322C173.441 184.72 174.66 186.077 176.331 186.077C177.648 186.077 178.533 185.605 179.26 184.681ZM173.322 181.83H179.103C179.044 180.277 178.022 179.234 176.331 179.234C174.64 179.234 173.519 180.277 173.322 181.83ZM182.105 185.782L183.324 184.838C183.933 185.585 184.602 186.077 185.684 186.077C186.647 186.077 187.709 185.664 187.709 184.662C187.709 183.678 186.726 183.423 185.742 183.206C183.992 182.813 182.498 182.439 182.498 180.532C182.498 178.743 184.228 177.819 185.939 177.819C187.237 177.819 188.436 178.311 189.066 179.49L187.787 180.336C187.394 179.687 186.745 179.234 185.841 179.234C184.995 179.234 184.032 179.648 184.032 180.513C184.032 181.279 185.133 181.614 186.352 181.85C187.984 182.164 189.361 182.754 189.361 184.602C189.361 186.687 187.512 187.493 185.684 187.493C184.13 187.493 183.009 187.08 182.105 185.782ZM190.477 185.782L191.696 184.838C192.305 185.585 192.974 186.077 194.055 186.077C195.019 186.077 196.08 185.664 196.08 184.662C196.08 183.678 195.098 183.423 194.114 183.206C192.365 182.813 190.87 182.439 190.87 180.532C190.87 178.743 192.6 177.819 194.311 177.819C195.608 177.819 196.808 178.311 197.438 179.49L196.159 180.336C195.766 179.687 195.117 179.234 194.213 179.234C193.367 179.234 192.404 179.648 192.404 180.513C192.404 181.279 193.505 181.614 194.724 181.85C196.356 182.164 197.732 182.754 197.732 184.602C197.732 186.687 195.884 187.493 194.055 187.493C192.502 187.493 191.381 187.08 190.477 185.782ZM206.93 184.681L208.09 185.585C207.009 186.981 205.711 187.493 204 187.493C201.11 187.493 199.34 185.33 199.34 182.656C199.34 179.805 201.346 177.819 204.059 177.819C206.654 177.819 208.424 179.589 208.424 182.636V183.128H200.992C201.11 184.72 202.329 186.077 204 186.077C205.317 186.077 206.202 185.605 206.93 184.681ZM200.992 181.83H206.773C206.714 180.277 205.691 179.234 204 179.234C202.31 179.234 201.188 180.277 200.992 181.83ZM209.774 185.782L210.993 184.838C211.603 185.585 212.271 186.077 213.353 186.077C214.316 186.077 215.378 185.664 215.378 184.662C215.378 183.678 214.395 183.423 213.412 183.206C211.662 182.813 210.168 182.439 210.168 180.532C210.168 178.743 211.898 177.819 213.608 177.819C214.906 177.819 216.105 178.311 216.735 179.49L215.457 180.336C215.063 179.687 214.415 179.234 213.51 179.234C212.665 179.234 211.701 179.648 211.701 180.513C211.701 181.279 212.802 181.614 214.022 181.85C215.654 182.164 217.03 182.754 217.03 184.602C217.03 186.687 215.182 187.493 213.353 187.493C211.799 187.493 210.679 187.08 209.774 185.782ZM220.447 185.015C221.096 185.015 221.627 185.546 221.627 186.195C221.627 186.844 221.056 187.375 220.447 187.375C219.837 187.375 219.267 186.844 219.267 186.195C219.267 185.546 219.798 185.015 220.447 185.015ZM225.919 185.015C226.568 185.015 227.099 185.546 227.099 186.195C227.099 186.844 226.529 187.375 225.919 187.375C225.31 187.375 224.739 186.844 224.739 186.195C224.739 185.546 225.27 185.015 225.919 185.015ZM231.391 185.015C232.04 185.015 232.571 185.546 232.571 186.195C232.571 186.844 232.001 187.375 231.391 187.375C230.782 187.375 230.212 186.844 230.212 186.195C230.212 185.546 230.743 185.015 231.391 185.015Z" fill="white"/>
</svg>
